<?xml version="1.0" encoding="iso-8859-1"?>
<!-- Generator: Adobe Illustrator 16.0.0, SVG Export Plug-In . SVG Version: 6.00 Build 0)  -->
<!DOCTYPE svg PUBLIC "-//W3C//DTD SVG 1.1//EN" "http://www.w3.org/Graphics/SVG/1.1/DTD/svg11.dtd">
<svg xmlns="http://www.w3.org/2000/svg" xmlns:xlink="http://www.w3.org/1999/xlink" version="1.1" id="Capa_1" x="0px" y="0px" width="512px" height="512px" viewBox="0 0 360.002 360.002" style="enable-background:new 0 0 360.002 360.002;" xml:space="preserve">
<g>
	<g>
		<g>
			<path d="M349.58,154.852L205.157,10.418c-13.896-13.891-36.418-13.891-50.311,0L10.422,154.852     c-13.892,13.893-13.892,36.407,0,50.3L154.85,349.585c6.948,6.944,16.051,10.417,25.151,10.417     c9.103,0,18.203-3.473,25.156-10.417L349.58,205.151C363.472,191.259,363.472,168.742,349.58,154.852z M166.164,127.787     l-1.064,10.019c-0.07,0.659-0.371,1.298-0.853,1.803l-25.918,27.192c17.084,3.541,26.457,15.341,24.722,31.684     c-1.138,10.695-5.903,19.854-13.786,26.479c-7.81,6.565-17.981,10.039-29.418,10.039c-10.569,0-21.752-3.462-29.911-9.256     l-4.594-3.263c-0.596-0.424-0.961-1.094-1.013-1.851c-0.05-0.756,0.218-1.534,0.745-2.147l9.512-11.104     c1.02-1.188,2.712-1.469,3.854-0.64l4.079,2.958c5.025,3.647,12.457,5.914,19.391,5.914c12.479,0,20.589-6.203,21.694-16.595     c0.636-5.979-0.612-13.927-18.717-13.927h-14.915c-1.539,0-2.653-1.248-2.49-2.786l1.064-10.025     c0.071-0.657,0.373-1.3,0.856-1.805l24.95-26.085h-32.998c-1.539,0-2.654-1.247-2.49-2.786l1.468-13.814     c0.165-1.538,1.545-2.786,3.083-2.786h60.257C165.213,125.001,166.328,126.249,166.164,127.787z M275.37,180.068     c-3.221,30.289-31.023,54.933-61.974,54.933h-42.273c-1.54,0-2.654-1.25-2.49-2.786l11.104-104.428     c0.164-1.538,1.546-2.786,3.083-2.786h42.273C256.044,125.001,278.601,149.705,275.37,180.068z" fill="#68c0ea"/>
			<path d="M223.031,144.389H197.36l-7.575,71.224h25.67c20.262,0,38.439-15.945,40.523-35.543     C258.072,160.395,243.291,144.389,223.031,144.389z" fill="#68c0ea"/>
		</g>
	</g>
</g>
<g>
</g>
<g>
</g>
<g>
</g>
<g>
</g>
<g>
</g>
<g>
</g>
<g>
</g>
<g>
</g>
<g>
</g>
<g>
</g>
<g>
</g>
<g>
</g>
<g>
</g>
<g>
</g>
<g>
</g>
</svg>
