<?xml version="1.0" encoding="iso-8859-1"?>
<!-- Generator: Adobe Illustrator 18.0.0, SVG Export Plug-In . SVG Version: 6.00 Build 0)  -->
<!DOCTYPE svg PUBLIC "-//W3C//DTD SVG 1.1//EN" "http://www.w3.org/Graphics/SVG/1.1/DTD/svg11.dtd">
<svg xmlns="http://www.w3.org/2000/svg" xmlns:xlink="http://www.w3.org/1999/xlink" version="1.1" id="Capa_1" x="0px" y="0px" viewBox="0 0 49 49" style="enable-background:new 0 0 49 49;" xml:space="preserve" width="512px" height="512px">
<g>
	<path d="M4.236,19.528c0.176,0.045,16.578,4.097,27.381-4.536c0.49-0.391,1.124-0.559,1.734-0.467   c0.601,0.093,1.14,0.436,1.479,0.94c1.991,2.965,5.304,6.087,9.767,4.119l1.137-0.4C43.457,9.308,34.896,2.5,24.5,2.5   C14.069,2.5,5.482,9.354,3.241,19.286L4.236,19.528z" fill="#68c0ea"/>
	<path d="M45.332,21.444c-4.4,1.942-8.745,0.226-12.162-4.863c-0.011-0.017-0.045-0.067-0.123-0.079   c-0.038-0.005-0.108-0.006-0.182,0.053c-6.034,4.821-13.484,6.004-19.34,6.004c-5.393,0-9.434-1.003-9.774-1.09l-2.083-0.507   C0.655,22.057,0,23.537,0,25c0,2.153,1.268,4.089,3.208,4.979C5.704,39.733,14.385,46.5,24.5,46.5   c10.115,0,18.797-6.767,21.292-16.521C47.732,29.089,49,27.153,49,25c0-1.537-0.717-3.099-1.819-4.206L45.332,21.444z M32,24.5   c1.105,0,2,0.896,2,2c0,1.105-0.895,2-2,2s-2-0.895-2-2C30,25.395,30.895,24.5,32,24.5z M17,24.5c1.105,0,2,0.896,2,2   c0,1.105-0.895,2-2,2s-2-0.895-2-2C15,25.395,15.895,24.5,17,24.5z M37.905,36.841c-0.09,0.25-0.276,0.453-0.517,0.565   c-1.34,0.626-2.765,0.944-4.233,0.944c-3.278,0-6.32-1.639-8.173-4.271c-1.852,2.631-4.895,4.271-8.173,4.271   c-1.468,0-2.893-0.318-4.233-0.944c-0.24-0.112-0.426-0.315-0.517-0.565c-0.09-0.249-0.078-0.524,0.034-0.765   c1.638-3.504,5.195-5.769,9.061-5.769c1.322,0,2.605,0.272,3.827,0.781c1.222-0.509,2.505-0.781,3.827-0.781   c3.866,0,7.423,2.265,9.061,5.769C37.983,36.316,37.995,36.592,37.905,36.841z" fill="#68c0ea"/>
</g>
<g>
</g>
<g>
</g>
<g>
</g>
<g>
</g>
<g>
</g>
<g>
</g>
<g>
</g>
<g>
</g>
<g>
</g>
<g>
</g>
<g>
</g>
<g>
</g>
<g>
</g>
<g>
</g>
<g>
</g>
</svg>
