<?xml version="1.0" encoding="iso-8859-1"?>
<!-- Generator: Adobe Illustrator 19.0.0, SVG Export Plug-In . SVG Version: 6.00 Build 0)  -->
<svg version="1.1" id="Layer_1" xmlns="http://www.w3.org/2000/svg" xmlns:xlink="http://www.w3.org/1999/xlink" x="0px" y="0px"
	 viewBox="0 0 512 512" style="enable-background:new 0 0 512 512;" xml:space="preserve">
<polygon style="fill:#D0E8F9;" points="8.533,8.533 503.467,8.533 503.467,59.733 8.533,59.733 "/>
<g>
	<path style="fill:#0096E6;" d="M512,68.267H0V0h512V68.267z M17.067,51.2h477.867V17.067H17.067V51.2z"/>
	<path style="fill:#0096E6;" d="M256,452.267c-5.12,0-8.533-3.413-8.533-8.533v-17.067H8.533c-5.12,0-8.533-3.413-8.533-8.533
		s3.413-8.533,8.533-8.533h494.933c5.12,0,8.533,3.413,8.533,8.533s-3.413,8.533-8.533,8.533H264.533v17.067
		C264.533,448.853,261.12,452.267,256,452.267z"/>
</g>
<path style="fill:#D0E8F9;" d="M281.6,477.867c0,14.507-11.093,25.6-25.6,25.6c-14.507,0-25.6-11.093-25.6-25.6
	c0-14.507,11.093-25.6,25.6-25.6C270.507,452.267,281.6,463.36,281.6,477.867L281.6,477.867z"/>
<path style="fill:#0096E6;" d="M256,512c-18.773,0-34.133-15.36-34.133-34.133s15.36-34.133,34.133-34.133
	s34.133,15.36,34.133,34.133S274.773,512,256,512z M256,460.8c-9.387,0-17.067,7.68-17.067,17.067s7.68,17.067,17.067,17.067
	c9.387,0,17.067-7.68,17.067-17.067S265.387,460.8,256,460.8z"/>
<polygon style="fill:#FFFFFF;" points="25.6,59.733 486.4,59.733 486.4,418.133 25.6,418.133 "/>
<g>
	<path style="fill:#0096E6;" d="M494.933,426.667H17.067V51.2h477.867V426.667z M34.133,409.6h443.733V68.267H34.133V409.6z"/>
	<path style="fill:#0096E6;" d="M443.733,384c-5.12,0-8.533-3.413-8.533-8.533V307.2c0-5.12,3.413-8.533,8.533-8.533
		c5.12,0,8.533,3.413,8.533,8.533v68.267C452.267,380.587,448.853,384,443.733,384z M409.6,384c-5.12,0-8.533-3.413-8.533-8.533
		v-102.4c0-5.12,3.413-8.533,8.533-8.533c5.12,0,8.533,3.413,8.533,8.533v102.4C418.133,380.587,414.72,384,409.6,384z M375.467,384
		c-5.12,0-8.533-3.413-8.533-8.533V332.8c0-5.12,3.413-8.533,8.533-8.533c5.12,0,8.533,3.413,8.533,8.533v42.667
		C384,380.587,380.587,384,375.467,384z M341.333,384c-5.12,0-8.533-3.413-8.533-8.533v-59.733c0-5.12,3.413-8.533,8.533-8.533
		c5.12,0,8.533,3.413,8.533,8.533v59.733C349.867,380.587,346.453,384,341.333,384z M307.2,384c-5.12,0-8.533-3.413-8.533-8.533
		v-25.6c0-5.12,3.413-8.533,8.533-8.533s8.533,3.413,8.533,8.533v25.6C315.733,380.587,312.32,384,307.2,384z M213.333,375.467h-128
		c-5.12,0-8.533-3.413-8.533-8.533s3.413-8.533,8.533-8.533h128c5.12,0,8.533,3.413,8.533,8.533S218.453,375.467,213.333,375.467z
		 M170.667,341.333H85.333c-5.12,0-8.533-3.413-8.533-8.533s3.413-8.533,8.533-8.533h85.333c5.12,0,8.533,3.413,8.533,8.533
		S175.787,341.333,170.667,341.333z"/>
</g>
<path style="fill:#D0E8F9;" d="M256,192c0,49.493-40.107,89.6-89.6,89.6S76.8,241.493,76.8,192s40.107-89.6,89.6-89.6
	S256,142.507,256,192L256,192z"/>
<g>
	<path style="fill:#0096E6;" d="M166.4,290.133c-53.76,0-98.133-44.373-98.133-98.133S112.64,93.867,166.4,93.867
		S264.533,138.24,264.533,192S220.16,290.133,166.4,290.133z M166.4,110.933c-44.373,0-81.067,36.693-81.067,81.067
		s36.693,81.067,81.067,81.067s81.067-36.693,81.067-81.067S210.773,110.933,166.4,110.933z"/>
	<path style="fill:#0096E6;" d="M213.333,266.24l-60.587-60.587l0,0v-8.533V99.84l5.973-5.12h2.56
		c27.307-1.707,54.613,9.387,74.24,29.013s29.867,46.08,29.013,74.24v2.56l-2.56,3.413l-3.413,1.707h-3.413H176.64l48.64,48.64
		L213.333,266.24z M169.813,188.587h76.8c-0.853-20.48-9.387-38.4-23.893-52.907c-14.507-14.507-33.28-23.04-52.907-23.893
		L169.813,188.587L169.813,188.587z M400.213,162.987h-68.267V145.92h68.267V162.987z M442.88,120.32h-25.6v-17.067h25.6V120.32z
		 M349.013,120.32h-17.067v-17.067h17.067V120.32z"/>
</g>
<g>
</g>
<g>
</g>
<g>
</g>
<g>
</g>
<g>
</g>
<g>
</g>
<g>
</g>
<g>
</g>
<g>
</g>
<g>
</g>
<g>
</g>
<g>
</g>
<g>
</g>
<g>
</g>
<g>
</g>
</svg>
