<svg version="1.1" xmlns="http://www.w3.org/2000/svg" x="0" y="0" viewBox="0 0 74 80" xml:space="preserve"><path fill="#C0E7F9" stroke="#1B96D3" stroke-width="2" stroke-linecap="round" stroke-linejoin="round" stroke-miterlimit="10" d="M58 69H46L36 79 26 69H14c-1.7 0-3-1.3-3-3V36l25-21 25 21v30c0 1.7-1.3 3-3 3z"/><path fill="#4ABFEE" stroke="#1B96D3" stroke-width="2" stroke-linecap="round" stroke-linejoin="round" stroke-miterlimit="10" d="M36 18l28 28 5-5L36 9 3 41l5 5z"/><path fill="#48BC97" stroke="#1B96D3" stroke-width="2" stroke-linecap="round" stroke-linejoin="round" stroke-miterlimit="10" d="M6 17v-6H1L9 1l8 10h-5v6z"/><g><path fill="#F69899" stroke="#F05347" stroke-width="2" stroke-miterlimit="10" d="M47.1 45.9c0 1.7-.7 3.5-1.8 4.5L36 60l-1.1-1.1-7.5-7.7-.7-.7c-1.1-1.1-1.8-2.9-1.8-4.5 0-3.3 2.7-5.9 6-5.9 2.1 0 4 1.1 5.1 2.8 1.1-1.7 2.9-2.8 5.1-2.8 3.3-.1 6 2.5 6 5.8z"/></g><path fill="none" stroke="#1B96D3" stroke-width="2" stroke-linecap="round" stroke-linejoin="round" stroke-miterlimit="10" d="M6 21h6M7 25h4"/><path fill="#48BC97" stroke="#1B96D3" stroke-width="2" stroke-linecap="round" stroke-linejoin="round" stroke-miterlimit="10" d="M62 21v-6h-5l8-10 8 10h-5v6z"/><path fill="none" stroke="#1B96D3" stroke-width="2" stroke-linecap="round" stroke-linejoin="round" stroke-miterlimit="10" d="M62 25h6M63 29h4"/></svg>