<?xml version="1.0" encoding="utf-8"?>
<!-- Generator: Adobe Illustrator 18.0.0, SVG Export Plug-In . SVG Version: 6.00 Build 0)  -->
<!DOCTYPE svg PUBLIC "-//W3C//DTD SVG 1.1//EN" "http://www.w3.org/Graphics/SVG/1.1/DTD/svg11.dtd">
<svg version="1.1" id="Layer_1" xmlns="http://www.w3.org/2000/svg" xmlns:xlink="http://www.w3.org/1999/xlink" x="0px" y="0px"
	 viewBox="0 0 72 85" enable-background="new 0 0 72 85" xml:space="preserve">
<g>
	
		<rect x="50" y="10" fill="#4ABFEE" stroke="#1B96D3" stroke-width="2" stroke-linecap="round" stroke-linejoin="round" stroke-miterlimit="10" width="4" height="6"/>
	
		<rect x="58" y="2" fill="#4ABFEE" stroke="#1B96D3" stroke-width="2" stroke-linecap="round" stroke-linejoin="round" stroke-miterlimit="10" width="4" height="14"/>
	
		<rect x="66" y="7" fill="#4ABFEE" stroke="#1B96D3" stroke-width="2" stroke-linecap="round" stroke-linejoin="round" stroke-miterlimit="10" width="4" height="9"/>
</g>
<polyline fill="none" stroke="#B0B0B0" stroke-width="2" stroke-linecap="round" stroke-linejoin="round" stroke-miterlimit="10" points="
	46,1 46,20 71,20 "/>
<circle fill="#4ABFEE" stroke="#1B96D3" stroke-width="2" stroke-linecap="round" stroke-linejoin="round" stroke-miterlimit="10" cx="13" cy="22" r="12"/>
<path fill="#48BC97" stroke="#1B96D3" stroke-width="2" stroke-linecap="round" stroke-linejoin="round" stroke-miterlimit="10" d="
	M23.7,10.3L13,21V6.2C17.1,6.2,20.9,7.7,23.7,10.3z"/>
<g>
	
		<polyline fill="#C0E7F9" stroke="#1B96D3" stroke-width="2" stroke-linecap="round" stroke-linejoin="round" stroke-miterlimit="10" points="
		10,57.1 32,76 48,76 70,57.1 	"/>
	
		<path fill="#C0E7F9" stroke="#1B96D3" stroke-width="2" stroke-linecap="round" stroke-linejoin="round" stroke-miterlimit="10" d="
		M40,34"/>
</g>
<polygon fill="#D59B3D" stroke="#C68D2D" stroke-width="2" stroke-linecap="round" stroke-linejoin="round" stroke-miterlimit="10" points="
	40,24 10,47.1 32,66 48,66 70,47.1 "/>
<g>
	<g>
		
			<polyline fill="#FFFFFF" stroke="#898989" stroke-width="2" stroke-linecap="round" stroke-linejoin="round" stroke-miterlimit="10" points="
			19,76 19,24 61,24 61,76 		"/>
	</g>
</g>
<path fill="#EAAE4E" stroke="#C68D2D" stroke-width="2" stroke-linecap="round" stroke-linejoin="round" stroke-miterlimit="10" d="
	M32,66L11.3,83.5c-0.2-0.1-0.4-0.3-0.5-0.5c-0.5-0.5-0.8-1.2-0.8-2V47.1L32,66z"/>
<path fill="#EAAE4E" stroke="#C68D2D" stroke-width="2" stroke-linecap="round" stroke-linejoin="round" stroke-miterlimit="10" d="
	M70,47.1V81c0,0.8-0.3,1.4-0.7,2c-0.2,0.2-0.4,0.4-0.6,0.5L48,66L70,47.1z"/>
<g>
	<g>
		
			<path fill="#F6BF59" stroke="#C68D2D" stroke-width="2" stroke-linecap="round" stroke-linejoin="round" stroke-miterlimit="10" d="
			M48,66l20.7,17.5c-0.5,0.3-1,0.5-1.7,0.5H13c-0.6,0-1.2-0.2-1.7-0.5L32,66H48z"/>
	</g>
</g>
<g>
	<g>
		
			<line fill="#C0E7F9" stroke="#898989" stroke-width="2" stroke-linecap="round" stroke-linejoin="round" stroke-miterlimit="10" x1="52" y1="50" x2="28" y2="50"/>
	</g>
</g>
<g>
	<g>
		
			<line fill="#C0E7F9" stroke="#898989" stroke-width="2" stroke-linecap="round" stroke-linejoin="round" stroke-miterlimit="10" x1="49" y1="55" x2="31" y2="55"/>
	</g>
</g>
<path fill="none" stroke="#48BC97" stroke-width="2" stroke-linejoin="round" stroke-miterlimit="10" d="M44,33h-5c-1.1,0-2,0.9-2,2
	l0,0c0,1.1,0.9,2,2,2h2c1.1,0,2,0.9,2,2l0,0c0,1.1-0.9,2-2,2h-5"/>
<line fill="none" stroke="#48BC97" stroke-width="2" stroke-linejoin="round" stroke-miterlimit="10" x1="40" y1="32" x2="40" y2="30"/>
<line fill="none" stroke="#48BC97" stroke-width="2" stroke-linejoin="round" stroke-miterlimit="10" x1="40" y1="44" x2="40" y2="42"/>
<path fill="none" stroke="#48BC97" stroke-width="2" stroke-linejoin="round" stroke-miterlimit="10" d="M33,33h-5c-1.1,0-2,0.9-2,2
	l0,0c0,1.1,0.9,2,2,2h2c1.1,0,2,0.9,2,2l0,0c0,1.1-0.9,2-2,2h-5"/>
<line fill="none" stroke="#48BC97" stroke-width="2" stroke-linejoin="round" stroke-miterlimit="10" x1="29" y1="32" x2="29" y2="30"/>
<line fill="none" stroke="#48BC97" stroke-width="2" stroke-linejoin="round" stroke-miterlimit="10" x1="29" y1="44" x2="29" y2="42"/>
<path fill="none" stroke="#48BC97" stroke-width="2" stroke-linejoin="round" stroke-miterlimit="10" d="M55,33h-5c-1.1,0-2,0.9-2,2
	l0,0c0,1.1,0.9,2,2,2h2c1.1,0,2,0.9,2,2l0,0c0,1.1-0.9,2-2,2h-5"/>
<line fill="none" stroke="#48BC97" stroke-width="2" stroke-linejoin="round" stroke-miterlimit="10" x1="51" y1="32" x2="51" y2="30"/>
<line fill="none" stroke="#48BC97" stroke-width="2" stroke-linejoin="round" stroke-miterlimit="10" x1="51" y1="44" x2="51" y2="42"/>
</svg>
