<?xml version="1.0" encoding="iso-8859-1"?>
<!-- Generator: Adobe Illustrator 19.0.0, SVG Export Plug-In . SVG Version: 6.00 Build 0)  -->
<svg version="1.1" id="Layer_1" xmlns="http://www.w3.org/2000/svg" xmlns:xlink="http://www.w3.org/1999/xlink" x="0px" y="0px"
	 viewBox="0 0 512 512" style="enable-background:new 0 0 512 512;" xml:space="preserve">
<g transform="translate(1 1)">
	<path style="fill:#D0E8F9;" d="M476.867,10.093H33.133c-13.653,0-25.6,11.947-25.6,25.6s11.947,25.6,25.6,25.6v-25.6h443.733v25.6
		c14.507,0,25.6-11.093,25.6-25.6S491.373,10.093,476.867,10.093L476.867,10.093z"/>
	<path style="fill:#0096E6;" d="M476.867,69.827h-8.533v-25.6H41.667v25.6h-8.533C14.36,69.827-1,54.467-1,35.693
		S14.36,1.56,33.133,1.56h443.733C495.64,1.56,511,16.92,511,35.693S495.64,69.827,476.867,69.827z M24.6,27.16h460.8V50.2
		c5.12-2.56,8.533-8.533,8.533-14.507c0-9.387-7.68-17.067-17.067-17.067H33.133c-9.387,0-17.067,7.68-17.067,17.067
		c0,5.973,3.413,11.947,8.533,14.507V27.16z"/>
	<polygon style="fill:#FFFFFF;" points="50.2,445.293 101.4,496.493 152.6,445.293 203.8,496.493 255,445.293 306.2,496.493 
		357.4,445.293 408.6,496.493 459.8,445.293 476.867,462.36 476.867,35.693 33.133,35.693 33.133,462.36 	"/>
	<g>
		<path style="fill:#0096E6;" d="M408.6,508.44l-51.2-51.2l-51.2,51.2l-51.2-51.2l-51.2,51.2l-51.2-51.2l-51.2,51.2l-51.2-51.2
			l-25.6,25.6V27.16h460.8v455.68l-25.6-25.6L408.6,508.44z M357.4,433.347l51.2,51.2l51.2-51.2l8.533,8.533V44.227H41.667V441.88
			l8.533-8.533l51.2,51.2l51.2-51.2l51.2,51.2l51.2-51.2l51.2,51.2L357.4,433.347z"/>
		<path style="fill:#0096E6;" d="M374.467,359.96h-128c-5.12,0-8.533-3.413-8.533-8.533c0-5.12,3.413-8.533,8.533-8.533h128
			c5.12,0,8.533,3.413,8.533,8.533C383,356.547,379.587,359.96,374.467,359.96z M135.533,334.36c-5.12,0-8.533-3.413-8.533-8.533
			v-7.68c-19.627-4.267-34.133-21.333-34.133-41.813c0-5.12,3.413-8.533,8.533-8.533c5.12,0,8.533,3.413,8.533,8.533
			c0,11.093,6.827,20.48,17.067,23.893v-46.933l-18.773-14.507c-6.827-5.12-11.093-12.8-11.947-21.333
			c-0.853-8.533,1.707-16.213,6.827-22.187c5.973-7.68,14.507-11.947,23.893-14.507v-8.533c0-5.12,3.413-8.533,8.533-8.533
			c5.12,0,8.533,3.413,8.533,8.533v9.387c19.627,4.267,34.133,21.333,34.133,41.813c0,5.12-3.413,8.533-8.533,8.533
			c-5.12,0-8.533-3.413-8.533-8.533c0-11.093-6.827-20.48-17.067-23.893v46.933l18.773,14.507c6.827,5.12,11.093,12.8,11.947,21.333
			c0.853,8.533-1.707,16.213-6.827,22.187c-5.973,7.68-14.507,11.947-23.893,14.507v6.827
			C144.067,330.947,140.653,334.36,135.533,334.36z M144.067,267.8v33.28c4.267-1.707,7.68-4.267,11.093-7.68
			c2.56-2.56,3.413-5.973,2.56-9.387c0-3.413-2.56-6.827-5.12-9.387L144.067,267.8z M127,199.533
			c-4.267,1.707-7.68,4.267-11.093,7.68c-2.56,2.56-3.413,5.973-2.56,9.387c0,3.413,2.56,6.827,5.12,9.387l8.533,6.827V199.533z
			 M417.133,300.227H331.8c-5.12,0-8.533-3.413-8.533-8.533c0-5.12,3.413-8.533,8.533-8.533h85.333c5.12,0,8.533,3.413,8.533,8.533
			C425.667,296.813,422.253,300.227,417.133,300.227z M263.533,300.227h-17.067c-5.12,0-8.533-3.413-8.533-8.533
			c0-5.12,3.413-8.533,8.533-8.533h17.067c5.12,0,8.533,3.413,8.533,8.533C272.067,296.813,268.653,300.227,263.533,300.227z
			 M417.133,240.493h-128c-5.12,0-8.533-3.413-8.533-8.533c0-5.12,3.413-8.533,8.533-8.533h128c5.12,0,8.533,3.413,8.533,8.533
			C425.667,237.08,422.253,240.493,417.133,240.493z M374.467,180.76h-128c-5.12,0-8.533-3.413-8.533-8.533s3.413-8.533,8.533-8.533
			h128c5.12,0,8.533,3.413,8.533,8.533S379.587,180.76,374.467,180.76z"/>
		<path style="fill:#0096E6;" d="M434.2,95.427c0-5.12,4.267-8.533,8.533-8.533l0,0c4.267,0,8.533,3.413,8.533,8.533l0,0
			c0,4.267-4.267,8.533-8.533,8.533l0,0C438.467,103.96,434.2,99.693,434.2,95.427z M400.067,95.427c0-5.12,4.267-8.533,8.533-8.533
			l0,0c4.267,0,8.533,3.413,8.533,8.533l0,0c0,4.267-4.267,8.533-8.533,8.533l0,0C404.333,103.96,400.067,99.693,400.067,95.427z
			 M365.933,95.427c0-5.12,4.267-8.533,8.533-8.533l0,0c4.267,0,8.533,3.413,8.533,8.533l0,0c0,4.267-4.267,8.533-8.533,8.533l0,0
			C370.2,103.96,365.933,99.693,365.933,95.427z M331.8,95.427c0-5.12,4.267-8.533,8.533-8.533l0,0c4.267,0,8.533,3.413,8.533,8.533
			l0,0c0,4.267-4.267,8.533-8.533,8.533l0,0C336.067,103.96,331.8,99.693,331.8,95.427z M297.667,95.427
			c0-5.12,4.267-8.533,8.533-8.533l0,0c4.267,0,8.533,3.413,8.533,8.533l0,0c0,4.267-4.267,8.533-8.533,8.533l0,0
			C301.933,103.96,297.667,99.693,297.667,95.427z M263.533,95.427c0-5.12,4.267-8.533,8.533-8.533l0,0
			c4.267,0,8.533,3.413,8.533,8.533l0,0c0,4.267-4.267,8.533-8.533,8.533l0,0C267.8,103.96,263.533,99.693,263.533,95.427z
			 M229.4,95.427c0-5.12,3.413-8.533,8.533-8.533l0,0c4.267,0,8.533,3.413,8.533,8.533l0,0c0,4.267-4.267,8.533-8.533,8.533l0,0
			C232.813,103.96,229.4,99.693,229.4,95.427z M195.267,95.427c0-5.12,3.413-8.533,8.533-8.533l0,0c4.267,0,8.533,3.413,8.533,8.533
			l0,0c0,4.267-4.267,8.533-8.533,8.533l0,0C198.68,103.96,195.267,99.693,195.267,95.427z M161.133,95.427
			c0-5.12,3.413-8.533,8.533-8.533l0,0c4.267,0,8.533,3.413,8.533,8.533l0,0c0,4.267-4.267,8.533-8.533,8.533l0,0
			C164.547,103.96,161.133,99.693,161.133,95.427z M127,95.427c0-5.12,3.413-8.533,8.533-8.533l0,0c4.267,0,8.533,3.413,8.533,8.533
			l0,0c0,4.267-4.267,8.533-8.533,8.533l0,0C130.413,103.96,127,99.693,127,95.427z M92.867,95.427c0-5.12,3.413-8.533,8.533-8.533
			l0,0c4.267,0,8.533,3.413,8.533,8.533l0,0c0,4.267-4.267,8.533-8.533,8.533l0,0C96.28,103.96,92.867,99.693,92.867,95.427z
			 M58.733,95.427c0-5.12,3.413-8.533,8.533-8.533l0,0c4.267,0,8.533,3.413,8.533,8.533l0,0c0,4.267-4.267,8.533-8.533,8.533l0,0
			C62.147,103.96,58.733,99.693,58.733,95.427z"/>
	</g>
</g>
<g>
</g>
<g>
</g>
<g>
</g>
<g>
</g>
<g>
</g>
<g>
</g>
<g>
</g>
<g>
</g>
<g>
</g>
<g>
</g>
<g>
</g>
<g>
</g>
<g>
</g>
<g>
</g>
<g>
</g>
</svg>
