<?xml version="1.0" encoding="iso-8859-1"?>
<!-- Generator: Adobe Illustrator 19.0.0, SVG Export Plug-In . SVG Version: 6.00 Build 0)  -->
<svg version="1.1" id="Layer_1" xmlns="http://www.w3.org/2000/svg" xmlns:xlink="http://www.w3.org/1999/xlink" x="0px" y="0px"
	 viewBox="0 0 512 512" style="enable-background:new 0 0 512 512;" xml:space="preserve">
<g transform="translate(1 1)">
	<path style="fill:#FFFFFF;" d="M7.533,27.16v375.467H331.8v-62.293c13.653,11.947,31.573,19.627,51.2,19.627
		c19.627,0,37.547-7.68,51.2-19.627v62.293h68.267V27.16H7.533L7.533,27.16z"/>
	<path style="fill:#0096E6;" d="M511,411.16h-85.333V357.4c-25.6,15.36-59.733,15.36-85.333,0v53.76H-1V18.627h512V411.16z
		 M442.733,394.093h51.2v-358.4H16.067v358.4h307.2V321.56l14.507,12.8c12.8,11.093,29.013,17.067,45.227,17.067
		s33.28-5.973,45.227-17.067l14.507-12.8V394.093z"/>
	<path style="fill:#D0E8F9;" d="M459.8,283.16c0,42.667-34.133,76.8-76.8,76.8s-76.8-34.133-76.8-76.8s34.133-76.8,76.8-76.8
		S459.8,240.493,459.8,283.16L459.8,283.16z"/>
	<path style="fill:#0096E6;" d="M383,368.493c-46.933,0-85.333-38.4-85.333-85.333s38.4-85.333,85.333-85.333
		s85.333,38.4,85.333,85.333S429.933,368.493,383,368.493z M383,214.893c-37.547,0-68.267,30.72-68.267,68.267
		s30.72,68.267,68.267,68.267s68.267-30.72,68.267-68.267S420.547,214.893,383,214.893z"/>
	<path style="fill:#D0E8F9;" d="M383,359.96c-19.627,0-37.547-7.68-51.2-19.627v130.56l51.2-51.2l51.2,51.2v-130.56
		C420.547,352.28,402.627,359.96,383,359.96L383,359.96z"/>
	<g>
		<path style="fill:#0096E6;" d="M442.733,491.373L383,431.64l-59.733,59.733V320.707l14.507,12.8
			c12.8,11.093,29.013,17.067,45.227,17.067s33.28-5.973,45.227-17.067l14.507-12.8V491.373z M383,407.747l42.667,42.667V357.4
			c-25.6,15.36-59.733,15.36-85.333,0v93.013L383,407.747z"/>
		<path style="fill:#0096E6;" d="M468.333,206.36c-5.12,0-8.533-3.413-8.533-8.533v-8.533c0-5.12,3.413-8.533,8.533-8.533
			c5.12,0,8.533,3.413,8.533,8.533v8.533C476.867,202.947,473.453,206.36,468.333,206.36z"/>
		<path style="fill:#0096E6;" d="M468.333,148.333c-5.12,0-8.533-3.413-8.533-8.533v-19.627c0-5.12,3.413-8.533,8.533-8.533
			c5.12,0,8.533,3.413,8.533,8.533V139.8C476.867,144.067,473.453,148.333,468.333,148.333z"/>
		<path style="fill:#0096E6;" d="M468.333,78.36c-5.12,0-8.533-3.413-8.533-8.533c-5.12,0-8.533-3.413-8.533-8.533
			s3.413-8.533,8.533-8.533h17.067v17.067C476.867,74.947,473.453,78.36,468.333,78.36z"/>
		<path style="fill:#0096E6;" d="M416.28,69.827h-17.067c-5.12,0-8.533-3.413-8.533-8.533s3.413-8.533,8.533-8.533h17.067
			c5.12,0,8.533,3.413,8.533,8.533S420.547,69.827,416.28,69.827z M354.84,69.827h-17.067c-5.12,0-8.533-3.413-8.533-8.533
			s3.413-8.533,8.533-8.533h17.067c5.12,0,8.533,3.413,8.533,8.533S359.96,69.827,354.84,69.827z M294.253,69.827h-17.067
			c-5.12,0-8.533-3.413-8.533-8.533s3.413-8.533,8.533-8.533h17.067c5.12,0,8.533,3.413,8.533,8.533S298.52,69.827,294.253,69.827z
			 M232.813,69.827h-17.067c-5.12,0-8.533-3.413-8.533-8.533s3.413-8.533,8.533-8.533h17.067c5.12,0,8.533,3.413,8.533,8.533
			S237.933,69.827,232.813,69.827z M172.227,69.827H155.16c-5.12,0-8.533-3.413-8.533-8.533s3.413-8.533,8.533-8.533h17.067
			c5.12,0,8.533,3.413,8.533,8.533S176.493,69.827,172.227,69.827z M110.787,69.827H93.72c-5.12,0-8.533-3.413-8.533-8.533
			S88.6,52.76,93.72,52.76h17.067c5.12,0,8.533,3.413,8.533,8.533S115.907,69.827,110.787,69.827z"/>
		<path style="fill:#0096E6;" d="M41.667,78.36c-5.12,0-8.533-3.413-8.533-8.533V52.76H50.2c5.12,0,8.533,3.413,8.533,8.533
			s-3.413,8.533-8.533,8.533C50.2,74.947,46.787,78.36,41.667,78.36z"/>
		<path style="fill:#0096E6;" d="M41.667,324.973c-5.12,0-8.533-3.413-8.533-8.533v-17.92c0-5.12,3.413-8.533,8.533-8.533
			S50.2,293.4,50.2,298.52v17.92C50.2,320.707,46.787,324.973,41.667,324.973z M41.667,262.68c-5.12,0-8.533-3.413-8.533-8.533
			v-17.92c0-5.12,3.413-8.533,8.533-8.533s8.533,3.413,8.533,8.533v17.92C50.2,259.267,46.787,262.68,41.667,262.68z M41.667,201.24
			c-5.12,0-8.533-3.413-8.533-8.533v-17.92c0-5.12,3.413-8.533,8.533-8.533s8.533,3.413,8.533,8.533v17.92
			C50.2,197.827,46.787,201.24,41.667,201.24z M41.667,139.8c-5.12,0-8.533-3.413-8.533-8.533v-17.92
			c0-5.12,3.413-8.533,8.533-8.533s8.533,3.413,8.533,8.533v17.92C50.2,136.387,46.787,139.8,41.667,139.8z"/>
		<path style="fill:#0096E6;" d="M50.2,377.027H33.133V359.96c0-5.12,3.413-8.533,8.533-8.533s8.533,3.413,8.533,8.533
			c5.12,0,8.533,3.413,8.533,8.533S55.32,377.027,50.2,377.027z"/>
		<path style="fill:#0096E6;" d="M229.4,377.027h-17.067c-5.12,0-8.533-3.413-8.533-8.533s3.413-8.533,8.533-8.533H229.4
			c5.12,0,8.533,3.413,8.533,8.533S234.52,377.027,229.4,377.027z M169.667,377.027H152.6c-5.12,0-8.533-3.413-8.533-8.533
			s3.413-8.533,8.533-8.533h17.067c5.12,0,8.533,3.413,8.533,8.533S174.787,377.027,169.667,377.027z M109.933,377.027H92.867
			c-5.12,0-8.533-3.413-8.533-8.533s3.413-8.533,8.533-8.533h17.067c5.12,0,8.533,3.413,8.533,8.533
			S115.053,377.027,109.933,377.027z"/>
		<path style="fill:#0096E6;" d="M280.6,377.027h-8.533c-5.12,0-8.533-3.413-8.533-8.533s3.413-8.533,8.533-8.533h8.533
			c5.12,0,8.533,3.413,8.533,8.533S285.72,377.027,280.6,377.027z M272.067,308.76h-179.2c-5.12,0-8.533-3.413-8.533-8.533
			c0-5.12,3.413-8.533,8.533-8.533h179.2c5.12,0,8.533,3.413,8.533,8.533C280.6,305.347,277.187,308.76,272.067,308.76z
			 M135.533,266.093c-5.12,0-8.533-3.413-8.533-8.533v-7.68c-19.627-4.267-34.133-21.333-34.133-41.813
			c0-5.12,3.413-8.533,8.533-8.533c5.12,0,8.533,3.413,8.533,8.533c0,11.093,6.827,20.48,17.067,23.893v-46.933l-18.773-14.507
			c-6.827-5.12-11.093-12.8-11.947-21.333s1.707-16.213,6.827-22.187c5.973-7.68,14.507-11.947,23.893-14.507v-8.533
			c0-5.12,3.413-8.533,8.533-8.533c5.12,0,8.533,3.413,8.533,8.533v9.387c19.627,4.267,34.133,21.333,34.133,41.813
			c0,5.12-3.413,8.533-8.533,8.533c-5.12,0-8.533-3.413-8.533-8.533c0-11.093-6.827-20.48-17.067-23.893V178.2l18.773,14.507
			c6.827,5.12,11.093,12.8,11.947,21.333c0.853,8.533-1.707,16.213-6.827,22.187c-5.973,7.68-14.507,11.947-23.893,14.507v6.827
			C144.067,262.68,140.653,266.093,135.533,266.093z M144.067,199.533v33.28c4.267-1.707,7.68-4.267,11.093-7.68
			c2.56-2.56,3.413-5.973,2.56-9.387c0-3.413-2.56-6.827-5.12-9.387L144.067,199.533z M127,131.267
			c-4.267,1.707-7.68,4.267-11.093,7.68c-2.56,2.56-3.413,5.973-2.56,9.387c0,3.413,2.56,6.827,5.12,9.387l8.533,6.827V131.267z
			 M280.6,249.027h-68.267c-5.12,0-8.533-3.413-8.533-8.533c0-5.12,3.413-8.533,8.533-8.533H280.6c5.12,0,8.533,3.413,8.533,8.533
			C289.133,245.613,285.72,249.027,280.6,249.027z M306.2,197.827h-93.867c-5.12,0-8.533-3.413-8.533-8.533
			c0-5.12,3.413-8.533,8.533-8.533H306.2c5.12,0,8.533,3.413,8.533,8.533C314.733,194.413,311.32,197.827,306.2,197.827z
			 M408.6,146.627H212.333c-5.12,0-8.533-3.413-8.533-8.533c0-5.12,3.413-8.533,8.533-8.533H408.6c5.12,0,8.533,3.413,8.533,8.533
			C417.133,143.213,413.72,146.627,408.6,146.627z"/>
	</g>
</g>
<g>
</g>
<g>
</g>
<g>
</g>
<g>
</g>
<g>
</g>
<g>
</g>
<g>
</g>
<g>
</g>
<g>
</g>
<g>
</g>
<g>
</g>
<g>
</g>
<g>
</g>
<g>
</g>
<g>
</g>
</svg>
