<?xml version="1.0" encoding="utf-8"?>
<!-- Generator: Adobe Illustrator 18.0.0, SVG Export Plug-In . SVG Version: 6.00 Build 0)  -->
<!DOCTYPE svg PUBLIC "-//W3C//DTD SVG 1.1//EN" "http://www.w3.org/Graphics/SVG/1.1/DTD/svg11.dtd">
<svg version="1.1" id="Layer_1" xmlns="http://www.w3.org/2000/svg" xmlns:xlink="http://www.w3.org/1999/xlink" x="0px" y="0px"
	 viewBox="0 0 86 71" enable-background="new 0 0 86 71" xml:space="preserve">
<line fill="none" stroke="#B0B0B0" stroke-width="2" stroke-linecap="round" stroke-linejoin="round" stroke-miterlimit="10" x1="7" y1="40" x2="15" y2="40"/>
<line fill="none" stroke="#B0B0B0" stroke-width="2" stroke-linecap="round" stroke-linejoin="round" stroke-miterlimit="10" x1="1" y1="46" x2="15" y2="46"/>
<line fill="none" stroke="#B0B0B0" stroke-width="2" stroke-linecap="round" stroke-linejoin="round" stroke-miterlimit="10" x1="5" y1="52" x2="15" y2="52"/>
<path fill="#4ABFEE" stroke="#1B96D3" stroke-width="2" stroke-linecap="round" stroke-linejoin="round" stroke-miterlimit="10" d="
	M62.5,61h-46c-0.8,0-1.5-0.7-1.5-1.5v-33c0-0.8,0.7-1.5,1.5-1.5h46c0.8,0,1.5,0.7,1.5,1.5v33C64,60.3,63.3,61,62.5,61z"/>
<path fill="#C0E7F9" stroke="#1B96D3" stroke-width="2" stroke-linecap="round" stroke-linejoin="round" stroke-miterlimit="10" d="
	M83.5,61H64V37h12l9,11v11.5C85,60.3,84.3,61,83.5,61z"/>
<polyline fill="#FFFFFF" points="68,48 68,41 74.1,41 80,48 "/>
<g>
	<g>
		<path fill="#F4F2EF" stroke="#F05347" stroke-width="2" stroke-miterlimit="10" d="M54,4v26c0,1.7-1.3,3-3,3H27c-1.7,0-3-1.3-3-3
			V4c0-1.7,1.3-3,3-3h24C52.7,1,54,2.3,54,4z"/>
	</g>
	<g>
		<path fill="#F69899" stroke="#F05347" stroke-width="2" stroke-miterlimit="10" d="M54,4v7H24V4c0-1.7,1.3-3,3-3h24
			C52.7,1,54,2.3,54,4z"/>
	</g>
	
		<polygon fill="#F6BF59" stroke="#C68D2D" stroke-width="2" stroke-linecap="round" stroke-linejoin="round" stroke-miterlimit="10" points="
		39,14.9 41.2,19.3 46,20.1 42.5,23.5 43.3,28.3 39,26 34.7,28.3 35.5,23.5 32,20.1 36.8,19.3 	"/>
	<circle fill="#F05347" cx="31" cy="6" r="2"/>
	<circle fill="#F05347" cx="47" cy="6" r="2"/>
</g>
<circle fill="#FFFFFF" stroke="#1B96D3" stroke-width="2" stroke-linecap="round" stroke-linejoin="round" stroke-miterlimit="10" cx="26" cy="63" r="7"/>
<circle fill="#1B96D3" cx="26" cy="63" r="3"/>
<circle fill="#FFFFFF" stroke="#1B96D3" stroke-width="2" stroke-linecap="round" stroke-linejoin="round" stroke-miterlimit="10" cx="74" cy="63" r="7"/>
<circle fill="#1B96D3" cx="74" cy="63" r="3"/>
</svg>
