<?xml version="1.0" encoding="utf-8"?>
<!-- Generator: Adobe Illustrator 16.0.0, SVG Export Plug-In . SVG Version: 6.00 Build 0)  -->
<!DOCTYPE svg PUBLIC "-//W3C//DTD SVG 1.1//EN" "http://www.w3.org/Graphics/SVG/1.1/DTD/svg11.dtd">
<svg xmlns="http://www.w3.org/2000/svg" xmlns:xlink="http://www.w3.org/1999/xlink" version="1.1" id="Layer_1" x="0px" y="0px" width="512px" height="512px" viewBox="0 0 300 300" enable-background="new 0 0 300 300" xml:space="preserve">
<g>
	<path d="M279.546,36.651H20.454c-7.156,0-12.954,5.795-12.954,12.951v161.926c0,7.162,5.798,12.951,12.954,12.951h116.592v12.958   H69.034c-7.153,0-12.955,5.808-12.955,12.951c0,7.168,5.802,12.963,12.955,12.963h161.933c7.152,0,12.954-5.795,12.954-12.963   c0-7.144-5.802-12.951-12.954-12.951h-68.013v-12.958h116.592c7.156,0,12.954-5.789,12.954-12.951V49.602   C292.5,42.446,286.702,36.651,279.546,36.651z M266.592,198.571H33.409V62.553h233.183V198.571z" fill="#52b7e7"/>
	<path d="M191.442,149.049c0.399,0.167,0.819,0.248,1.237,0.248c0.881,0,1.744-0.359,2.369-1.033l5.13-5.504l8.269,22.705   c0.479,1.323,1.723,2.146,3.043,2.146c0.365,0,0.742-0.067,1.107-0.21c1.683-0.6,2.548-2.468,1.933-4.15l-8.263-22.705l7.468,0.916   c1.345,0.204,2.647-0.52,3.269-1.713c0.625-1.206,0.436-2.666-0.47-3.667l-20.364-22.587c-0.878-0.977-2.276-1.323-3.513-0.866   c-1.24,0.445-2.081,1.608-2.125,2.925l-1.085,30.387C189.395,147.292,190.192,148.536,191.442,149.049z" fill="#52b7e7"/>
	<path d="M63.096,130.673l39.923-34.338l39.933,34.338c0.798,0.693,1.788,1.039,2.783,1.039c1.2,0,2.388-0.507,3.232-1.497   c1.537-1.781,1.336-4.484-0.449-6.024l-42.713-36.72c-1.602-1.379-3.964-1.379-5.569,0l-42.707,36.72   c-1.791,1.54-1.989,4.243-0.452,6.024C58.612,132.028,61.309,132.22,63.096,130.673z" fill="#52b7e7"/>
	<path d="M104.884,101.79c-1.07-0.916-2.656-0.916-3.723,0l-32.177,27.77c-0.627,0.538-1.002,1.324-1.002,2.152v40.14   c0,1.571,1.293,2.852,2.848,2.852h64.366c1.577,0,2.852-1.28,2.852-2.852v-40.14c0-0.829-0.362-1.614-0.98-2.152L104.884,101.79z    M100.171,162.111c0,1.571-1.271,2.852-2.845,2.852h-9.96c-1.577,0-2.845-1.28-2.845-2.852v-9.964c0-1.596,1.268-2.864,2.845-2.864   h9.96c1.574,0,2.845,1.268,2.845,2.864V162.111z M100.171,140.755c0,1.565-1.271,2.845-2.845,2.845h-9.96   c-1.577,0-2.845-1.28-2.845-2.845v-9.982c0-1.571,1.268-2.845,2.845-2.845h9.96c1.574,0,2.845,1.274,2.845,2.845V140.755z    M121.531,162.111c0,1.571-1.271,2.852-2.848,2.852h-9.967c-1.562,0-2.848-1.28-2.848-2.852v-9.964   c0-1.596,1.287-2.864,2.848-2.864h9.967c1.577,0,2.848,1.268,2.848,2.864V162.111z M121.531,140.755   c0,1.565-1.271,2.845-2.848,2.845h-9.967c-1.562,0-2.848-1.28-2.848-2.845v-9.982c0-1.571,1.287-2.845,2.848-2.845h9.967   c1.577,0,2.848,1.274,2.848,2.845V140.755z" fill="#52b7e7"/>
</g>
</svg>
