<?xml version="1.0" encoding="iso-8859-1"?>
<!-- Generator: Adobe Illustrator 19.0.0, SVG Export Plug-In . SVG Version: 6.00 Build 0)  -->
<svg version="1.1" id="Layer_1" xmlns="http://www.w3.org/2000/svg" xmlns:xlink="http://www.w3.org/1999/xlink" x="0px" y="0px"
	 viewBox="0 0 512.001 512.001" style="enable-background:new 0 0 512.001 512.001;" xml:space="preserve">
<g>
	<path style="fill:#E8EDEE;" d="M238.204,369.398l-52.824,47.642v94.958h141.241v-94.835l-52.189-47.81
		C263.698,359.608,249.3,359.291,238.204,369.398"/>
	<g>
		<path style="fill:#B0BAC1;" d="M172.716,427.644c-7.424,6.771-18.865,6.506-25.971-0.6c-7.53-7.53-7.309-19.809,0.494-27.065
			l9.71-8.854l-23.755-21.769c-10.743-9.746-25.141-10.063-36.228,0.044l-52.833,47.642v94.958h141.241v-94.835l-0.433-0.397
			L172.716,427.644z"/>
		<path style="fill:#B0BAC1;" d="M415.678,369.352c-10.743-9.746-25.141-10.063-36.228,0.044l-24.196,21.822l9.481,8.73
			c7.821,7.247,8.06,19.544,0.512,27.092l0,0c-7.097,7.097-18.503,7.371-25.935,0.636l-12.262-11.026l-0.433,0.397v94.95h141.241
			v-94.826L415.678,369.352z"/>
	</g>
	<path style="fill:#434C6D;" d="M223.017,330.909l-75.776,69.067c-7.804,7.256-8.024,19.535-0.494,27.065
		c7.106,7.106,18.547,7.371,25.971,0.6l65.483-58.244c11.096-10.108,25.494-9.79,36.237-0.044l64.874,58.324
		c7.433,6.735,18.838,6.462,25.935-0.636l0,0c7.548-7.548,7.309-19.844-0.512-27.092l-75.087-69.111
		C270.845,313.422,241.784,313.448,223.017,330.909"/>
	<polygon style="fill:#B0BAC1;" points="238.344,512 273.655,512 273.655,459.034 238.344,459.034 	"/>
	<g>
		<polygon style="fill:#E8EDEE;" points="97.103,512 132.413,512 132.413,459.034 97.103,459.034 		"/>
		<polygon style="fill:#E8EDEE;" points="379.586,512 414.896,512 414.896,459.034 379.586,459.034 		"/>
	</g>
	<g>
		<path style="fill:#2D3751;" d="M185.566,365.042l-37.164-34.198c-18.803-17.426-47.863-17.399-66.631,0.062L5.995,399.973
			c-7.795,7.256-8.015,19.535-0.486,27.074c7.106,7.097,18.538,7.371,25.962,0.6l65.492-58.244
			c11.087-10.116,25.485-9.79,36.228-0.053l23.985,21.566L185.566,365.042z"/>
		<path style="fill:#2D3751;" d="M505.976,399.946l-75.087-69.102c-18.803-17.426-47.863-17.399-66.631,0.062l-37.447,34.136
			l28.275,26.024l24.364-21.663c11.087-10.116,25.485-9.79,36.228-0.053l64.874,58.324c7.433,6.744,18.838,6.462,25.935-0.627
			v-0.009C514.035,419.499,513.797,407.194,505.976,399.946"/>
	</g>
	<path style="fill:#48A0DC;" d="M255.999,264.828c-12.888-5.032-25.353-12.235-37.191-21.495
		c-37.517-29.352-59.913-76.826-59.913-126.994V35.028c44.853-5.694,76.703-21.23,97.103-35.028
		c20.401,13.798,52.25,29.334,97.103,35.028v81.311c0,50.167-22.396,97.642-59.904,126.994
		C281.352,252.593,268.888,259.796,255.999,264.828"/>
	<path style="fill:#FFFFFF;" d="M208.638,185.362c-3.204,0-6.294-1.748-7.865-4.793c-10.063-19.588-15.395-41.799-15.395-64.23
		V64.441c0-4.087,2.807-7.636,6.771-8.589c11.776-2.816,23.261-6.409,34.145-10.69c4.529-1.766,9.657,0.45,11.441,4.996
		c1.783,4.529-0.45,9.649-4.996,11.432c-9.543,3.752-19.5,7.009-29.705,9.719v45.03c0,19.633,4.652,39.053,13.453,56.161
		c2.225,4.334,0.512,9.657-3.822,11.891C211.374,185.053,209.988,185.362,208.638,185.362"/>
</g>
<g>
</g>
<g>
</g>
<g>
</g>
<g>
</g>
<g>
</g>
<g>
</g>
<g>
</g>
<g>
</g>
<g>
</g>
<g>
</g>
<g>
</g>
<g>
</g>
<g>
</g>
<g>
</g>
<g>
</g>
</svg>
