<?xml version="1.0" encoding="iso-8859-1"?>
<!-- Generator: Adobe Illustrator 19.0.0, SVG Export Plug-In . SVG Version: 6.00 Build 0)  -->
<svg version="1.1" id="Layer_1" xmlns="http://www.w3.org/2000/svg" xmlns:xlink="http://www.w3.org/1999/xlink" x="0px" y="0px"
	 viewBox="0 0 512 512" style="enable-background:new 0 0 512 512;" xml:space="preserve">
<g>
	<g>
		<path style="fill:#C8D2DA;" d="M256,51.2c-4.71,0-8.533-3.823-8.533-8.533V8.533C247.467,3.823,251.29,0,256,0
			c4.71,0,8.533,3.823,8.533,8.533v34.133C264.533,47.377,260.71,51.2,256,51.2"/>
		<path style="fill:#C8D2DA;" d="M256,494.933c-4.71,0-8.533-3.823-8.533-8.533V384c0-4.71,3.823-8.533,8.533-8.533
			c4.71,0,8.533,3.823,8.533,8.533v102.4C264.533,491.11,260.71,494.933,256,494.933"/>
		<path style="fill:#C8D2DA;" d="M375.467,512c-2.185,0-4.369-0.836-6.033-2.5L249.967,390.033c-3.337-3.337-3.337-8.73,0-12.066
			c3.337-3.337,8.73-3.337,12.066,0L381.5,497.434c3.337,3.337,3.337,8.73,0,12.066C379.836,511.164,377.651,512,375.467,512"/>
		<path style="fill:#C8D2DA;" d="M136.533,512c-2.185,0-4.369-0.836-6.033-2.5c-3.337-3.337-3.337-8.73,0-12.066l119.467-119.467
			c3.337-3.337,8.73-3.337,12.066,0c3.337,3.337,3.337,8.73,0,12.066L142.566,509.5C140.902,511.164,138.718,512,136.533,512"/>
	</g>
	<polygon style="fill:#EEECDE;" points="8.533,384 503.467,384 503.467,42.667 8.533,42.667 	"/>
	<g>
		<path style="fill:#D2C1A3;" d="M258.034,128.292c1.579,0.333,3.046,1.067,4.19,2.219l62.054,62.217l13.517-13.525l-81.963-81.801
			l-81.638,81.792l13.534,13.534l62.046-62.217c1.604-1.604,3.772-2.509,6.042-2.509l0,0
			C256.574,128.002,257.317,128.104,258.034,128.292 M324.269,213.335h-0.009c-2.261,0-4.437-0.905-6.033-2.509l-62.225-62.396
			l-62.225,62.396c-1.604,1.604-3.772,2.509-6.042,2.509l0,0c-2.261,0-4.437-0.905-6.033-2.5l-25.6-25.6
			c-3.328-3.328-3.337-8.73-0.009-12.066l93.679-93.867c1.604-1.596,3.772-2.5,6.033-2.5h0.009c2.261,0,4.429,0.896,6.033,2.492
			l94.046,93.867c1.604,1.596,2.509,3.772,2.509,6.033c0,2.27-0.905,4.437-2.5,6.042l-25.6,25.6
			C328.698,212.431,326.531,213.335,324.269,213.335"/>
		<path style="fill:#D2C1A3;" d="M213.333,247.467h85.333v-56.192l-42.752-42.675l-42.581,42.667V247.467z M307.2,264.533H204.8
			c-4.71,0-8.533-3.823-8.533-8.533v-68.267c0-2.261,0.896-4.429,2.492-6.033l51.098-51.2c1.604-1.596,3.772-2.5,6.033-2.5h0.009
			c2.261,0,4.429,0.896,6.033,2.492l51.302,51.2c1.604,1.604,2.5,3.772,2.5,6.042V256C315.733,260.71,311.91,264.533,307.2,264.533
			L307.2,264.533z"/>
		<path style="fill:#D2C1A3;" d="M221.867,349.867h-76.8c-4.71,0-8.533-3.823-8.533-8.533s3.823-8.533,8.533-8.533h76.8
			c4.71,0,8.533,3.823,8.533,8.533S226.577,349.867,221.867,349.867"/>
		<path style="fill:#D2C1A3;" d="M307.2,349.867H256c-4.71,0-8.533-3.823-8.533-8.533S251.29,332.8,256,332.8h51.2
			c4.71,0,8.533,3.823,8.533,8.533S311.91,349.867,307.2,349.867"/>
		<path style="fill:#D2C1A3;" d="M366.933,349.867h-25.6c-4.71,0-8.533-3.823-8.533-8.533s3.823-8.533,8.533-8.533h25.6
			c4.71,0,8.533,3.823,8.533,8.533S371.644,349.867,366.933,349.867"/>
		<path style="fill:#D2C1A3;" d="M366.933,315.733h-76.8c-4.71,0-8.533-3.823-8.533-8.533s3.823-8.533,8.533-8.533h76.8
			c4.71,0,8.533,3.823,8.533,8.533S371.644,315.733,366.933,315.733"/>
		<path style="fill:#D2C1A3;" d="M256,315.733h-51.2c-4.71,0-8.533-3.823-8.533-8.533s3.823-8.533,8.533-8.533H256
			c4.71,0,8.533,3.823,8.533,8.533S260.71,315.733,256,315.733"/>
		<path style="fill:#D2C1A3;" d="M170.667,315.733h-25.6c-4.71,0-8.533-3.823-8.533-8.533s3.823-8.533,8.533-8.533h25.6
			c4.71,0,8.533,3.823,8.533,8.533S175.377,315.733,170.667,315.733"/>
		<path style="fill:#D2C1A3;" d="M85.333,85.333H42.667c-4.71,0-8.533-3.823-8.533-8.533s3.823-8.533,8.533-8.533h42.667
			c4.71,0,8.533,3.823,8.533,8.533S90.044,85.333,85.333,85.333"/>
		<path style="fill:#D2C1A3;" d="M110.933,119.467H42.667c-4.71,0-8.533-3.823-8.533-8.533c0-4.71,3.823-8.533,8.533-8.533h68.267
			c4.71,0,8.533,3.823,8.533,8.533C119.467,115.644,115.644,119.467,110.933,119.467"/>
	</g>
</g>
<g>
</g>
<g>
</g>
<g>
</g>
<g>
</g>
<g>
</g>
<g>
</g>
<g>
</g>
<g>
</g>
<g>
</g>
<g>
</g>
<g>
</g>
<g>
</g>
<g>
</g>
<g>
</g>
<g>
</g>
</svg>
