<?xml version="1.0" encoding="iso-8859-1"?>
<!-- Generator: Adobe Illustrator 19.0.0, SVG Export Plug-In . SVG Version: 6.00 Build 0)  -->
<svg version="1.1" id="Layer_1" xmlns="http://www.w3.org/2000/svg" xmlns:xlink="http://www.w3.org/1999/xlink" x="0px" y="0px"
	 viewBox="0 0 512 512" style="enable-background:new 0 0 512 512;" xml:space="preserve">
<g>
	<g>
		<path style="fill:#C8D2DA;" d="M256,51.2c-4.719,0-8.533-3.823-8.533-8.533V8.533C247.467,3.823,251.281,0,256,0
			c4.719,0,8.533,3.823,8.533,8.533v34.133C264.533,47.377,260.719,51.2,256,51.2"/>
		<path style="fill:#C8D2DA;" d="M256,494.933c-4.719,0-8.533-3.823-8.533-8.533V384c0-4.71,3.814-8.533,8.533-8.533
			c4.719,0,8.533,3.823,8.533,8.533v102.4C264.533,491.11,260.719,494.933,256,494.933"/>
		<path style="fill:#C8D2DA;" d="M375.467,512c-2.185,0-4.369-0.836-6.033-2.5L249.967,390.033c-3.337-3.337-3.337-8.73,0-12.066
			c3.337-3.337,8.73-3.337,12.066,0L381.5,497.434c3.337,3.337,3.337,8.73,0,12.066C379.836,511.164,377.651,512,375.467,512"/>
		<path style="fill:#C8D2DA;" d="M136.533,512c-2.185,0-4.369-0.836-6.033-2.5c-3.337-3.337-3.337-8.73,0-12.066l119.467-119.467
			c3.337-3.337,8.73-3.337,12.066,0c3.337,3.337,3.337,8.73,0,12.066L142.566,509.5C140.902,511.164,138.718,512,136.533,512"/>
	</g>
	<polygon style="fill:#EEECDE;" points="8.533,384 503.467,384 503.467,42.667 8.533,42.667 	"/>
	<g>
		<path style="fill:#D2C1A3;" d="M68.267,170.667c-4.719,0-8.533-3.823-8.533-8.533V102.4c0-4.71,3.814-8.533,8.533-8.533
			S76.8,97.69,76.8,102.4v59.733C76.8,166.844,72.986,170.667,68.267,170.667"/>
		<path style="fill:#D2C1A3;" d="M119.467,170.667c-4.719,0-8.533-3.823-8.533-8.533V102.4c0-4.71,3.814-8.533,8.533-8.533
			c4.719,0,8.533,3.823,8.533,8.533v59.733C128,166.844,124.186,170.667,119.467,170.667"/>
		<path style="fill:#D2C1A3;" d="M145.067,136.533c-2.185,0-4.369-0.836-6.033-2.5L93.867,88.866L48.7,134.033
			c-3.337,3.337-8.73,3.337-12.066,0s-3.337-8.73,0-12.066l51.2-51.2c3.337-3.337,8.73-3.337,12.066,0l51.2,51.2
			c3.337,3.337,3.337,8.73,0,12.066C149.436,135.697,147.251,136.533,145.067,136.533"/>
		<path style="fill:#D2C1A3;" d="M469.333,324.267H435.2c-4.719,0-8.533-3.823-8.533-8.533c0-4.71,3.814-8.533,8.533-8.533h34.133
			c4.719,0,8.533,3.823,8.533,8.533C477.867,320.444,474.052,324.267,469.333,324.267"/>
		<path style="fill:#D2C1A3;" d="M469.333,358.4h-68.267c-4.719,0-8.533-3.823-8.533-8.533c0-4.71,3.814-8.533,8.533-8.533h68.267
			c4.719,0,8.533,3.823,8.533,8.533C477.867,354.577,474.052,358.4,469.333,358.4"/>
	</g>
	<g>
		<polygon style="fill:#D75A4A;" points="102.4,290.133 136.533,290.133 136.533,204.8 102.4,204.8 		"/>
		<polygon style="fill:#D75A4A;" points="170.667,290.133 204.8,290.133 204.8,162.133 170.667,162.133 		"/>
		<polygon style="fill:#D75A4A;" points="238.933,290.133 273.067,290.133 273.067,204.8 238.933,204.8 		"/>
		<polygon style="fill:#D75A4A;" points="307.2,290.133 341.333,290.133 341.333,162.133 307.2,162.133 		"/>
		<polygon style="fill:#D75A4A;" points="375.467,290.133 409.6,290.133 409.6,204.8 375.467,204.8 		"/>
	</g>
	<path style="fill:#24AE5F;" d="M426.667,298.667H85.333c-4.719,0-8.533-3.823-8.533-8.533c0-4.71,3.814-8.533,8.533-8.533h341.333
		c4.719,0,8.533,3.823,8.533,8.533C435.2,294.844,431.386,298.667,426.667,298.667"/>
</g>
<g>
</g>
<g>
</g>
<g>
</g>
<g>
</g>
<g>
</g>
<g>
</g>
<g>
</g>
<g>
</g>
<g>
</g>
<g>
</g>
<g>
</g>
<g>
</g>
<g>
</g>
<g>
</g>
<g>
</g>
</svg>
