<?xml version="1.0" encoding="iso-8859-1"?>
<!-- Generator: Adobe Illustrator 19.0.0, SVG Export Plug-In . SVG Version: 6.00 Build 0)  -->
<svg version="1.1" id="Layer_1" xmlns="http://www.w3.org/2000/svg" xmlns:xlink="http://www.w3.org/1999/xlink" x="0px" y="0px"
	 viewBox="0 0 512 512" style="enable-background:new 0 0 512 512;" xml:space="preserve">
<g>
	<g>
		<path style="fill:#90BAE1;" d="M119.467,102.4c-4.719,0-8.533-3.823-8.533-8.533V8.533c0-4.71,3.814-8.533,8.533-8.533
			C124.186,0,128,3.823,128,8.533v85.333C128,98.577,124.186,102.4,119.467,102.4"/>
		<path style="fill:#90BAE1;" d="M503.467,401.067h-85.333c-4.719,0-8.533-3.823-8.533-8.533s3.814-8.533,8.533-8.533h85.333
			c4.719,0,8.533,3.823,8.533,8.533S508.186,401.067,503.467,401.067"/>
		<path style="fill:#90BAE1;" d="M93.867,477.867h-8.533c-4.719,0-8.533-3.823-8.533-8.533c0-4.71,3.814-8.533,8.533-8.533h8.533
			c4.719,0,8.533,3.823,8.533,8.533C102.4,474.044,98.586,477.867,93.867,477.867"/>
		<path style="fill:#90BAE1;" d="M136.533,477.867H128c-4.719,0-8.533-3.823-8.533-8.533c0-4.71,3.814-8.533,8.533-8.533h8.533
			c4.719,0,8.533,3.823,8.533,8.533C145.067,474.044,141.252,477.867,136.533,477.867"/>
		<path style="fill:#90BAE1;" d="M179.2,477.867h-8.533c-4.719,0-8.533-3.823-8.533-8.533c0-4.71,3.814-8.533,8.533-8.533h8.533
			c4.719,0,8.533,3.823,8.533,8.533C187.733,474.044,183.919,477.867,179.2,477.867"/>
		<path style="fill:#90BAE1;" d="M221.867,477.867h-8.533c-4.719,0-8.533-3.823-8.533-8.533c0-4.71,3.814-8.533,8.533-8.533h8.533
			c4.719,0,8.533,3.823,8.533,8.533C230.4,474.044,226.586,477.867,221.867,477.867"/>
		<path style="fill:#90BAE1;" d="M264.533,477.867H256c-4.719,0-8.533-3.823-8.533-8.533c0-4.71,3.814-8.533,8.533-8.533h8.533
			c4.719,0,8.533,3.823,8.533,8.533C273.067,474.044,269.252,477.867,264.533,477.867"/>
		<path style="fill:#90BAE1;" d="M307.2,477.867h-8.533c-4.719,0-8.533-3.823-8.533-8.533c0-4.71,3.814-8.533,8.533-8.533h8.533
			c4.719,0,8.533,3.823,8.533,8.533C315.733,474.044,311.919,477.867,307.2,477.867"/>
		<path style="fill:#90BAE1;" d="M349.867,477.867h-8.533c-4.719,0-8.533-3.823-8.533-8.533c0-4.71,3.814-8.533,8.533-8.533h8.533
			c4.719,0,8.533,3.823,8.533,8.533C358.4,474.044,354.586,477.867,349.867,477.867"/>
		<path style="fill:#90BAE1;" d="M392.533,477.867H384c-4.719,0-8.533-3.823-8.533-8.533c0-4.71,3.814-8.533,8.533-8.533h8.533
			c4.719,0,8.533,3.823,8.533,8.533C401.067,474.044,397.252,477.867,392.533,477.867"/>
		<path style="fill:#90BAE1;" d="M435.2,477.867h-8.533c-4.719,0-8.533-3.823-8.533-8.533c0-4.71,3.814-8.533,8.533-8.533h8.533
			c4.719,0,8.533,3.823,8.533,8.533C443.733,474.044,439.919,477.867,435.2,477.867"/>
		<path style="fill:#90BAE1;" d="M469.333,512c-4.719,0-8.533-3.823-8.533-8.533v-34.133c0-4.71,3.814-8.533,8.533-8.533h34.133
			c4.719,0,8.533,3.823,8.533,8.533c0,4.71-3.814,8.533-8.533,8.533h-25.6v25.6C477.867,508.177,474.052,512,469.333,512"/>
		<path style="fill:#90BAE1;" d="M435.2,51.2h-8.533c-4.719,0-8.533-3.823-8.533-8.533s3.814-8.533,8.533-8.533h8.533
			c4.719,0,8.533,3.823,8.533,8.533S439.919,51.2,435.2,51.2"/>
		<path style="fill:#90BAE1;" d="M392.533,51.2H384c-4.719,0-8.533-3.823-8.533-8.533s3.814-8.533,8.533-8.533h8.533
			c4.719,0,8.533,3.823,8.533,8.533S397.252,51.2,392.533,51.2"/>
		<path style="fill:#90BAE1;" d="M349.867,51.2h-8.533c-4.719,0-8.533-3.823-8.533-8.533s3.814-8.533,8.533-8.533h8.533
			c4.719,0,8.533,3.823,8.533,8.533S354.586,51.2,349.867,51.2"/>
		<path style="fill:#90BAE1;" d="M307.2,51.2h-8.533c-4.719,0-8.533-3.823-8.533-8.533s3.814-8.533,8.533-8.533h8.533
			c4.719,0,8.533,3.823,8.533,8.533S311.919,51.2,307.2,51.2"/>
		<path style="fill:#90BAE1;" d="M264.533,51.2H256c-4.719,0-8.533-3.823-8.533-8.533s3.814-8.533,8.533-8.533h8.533
			c4.719,0,8.533,3.823,8.533,8.533S269.252,51.2,264.533,51.2"/>
		<path style="fill:#90BAE1;" d="M221.867,51.2h-8.533c-4.719,0-8.533-3.823-8.533-8.533s3.814-8.533,8.533-8.533h8.533
			c4.719,0,8.533,3.823,8.533,8.533S226.586,51.2,221.867,51.2"/>
		<path style="fill:#90BAE1;" d="M179.2,51.2h-8.533c-4.719,0-8.533-3.823-8.533-8.533s3.814-8.533,8.533-8.533h8.533
			c4.719,0,8.533,3.823,8.533,8.533S183.919,51.2,179.2,51.2"/>
		<path style="fill:#90BAE1;" d="M136.533,51.2h-17.067c-4.719,0-8.533-3.823-8.533-8.533s3.814-8.533,8.533-8.533h17.067
			c4.719,0,8.533,3.823,8.533,8.533S141.252,51.2,136.533,51.2"/>
		<path style="fill:#90BAE1;" d="M85.333,51.2H76.8c-4.719,0-8.533-3.823-8.533-8.533s3.814-8.533,8.533-8.533h8.533
			c4.719,0,8.533,3.823,8.533,8.533S90.052,51.2,85.333,51.2"/>
		<path style="fill:#90BAE1;" d="M503.467,51.2h-34.133c-4.719,0-8.533-3.823-8.533-8.533V8.533c0-4.71,3.814-8.533,8.533-8.533
			c4.719,0,8.533,3.823,8.533,8.533v25.6h25.6c4.719,0,8.533,3.823,8.533,8.533S508.186,51.2,503.467,51.2"/>
		<path style="fill:#90BAE1;" d="M42.667,51.2H8.533C3.814,51.2,0,47.377,0,42.667s3.814-8.533,8.533-8.533h25.6v-25.6
			c0-4.71,3.814-8.533,8.533-8.533S51.2,3.823,51.2,8.533v34.133C51.2,47.377,47.386,51.2,42.667,51.2"/>
		<path style="fill:#90BAE1;" d="M42.667,102.4c-4.719,0-8.533-3.823-8.533-8.533v-8.533c0-4.71,3.814-8.533,8.533-8.533
			s8.533,3.823,8.533,8.533v8.533C51.2,98.577,47.386,102.4,42.667,102.4"/>
		<path style="fill:#90BAE1;" d="M42.667,145.067c-4.719,0-8.533-3.823-8.533-8.533V128c0-4.71,3.814-8.533,8.533-8.533
			S51.2,123.29,51.2,128v8.533C51.2,141.244,47.386,145.067,42.667,145.067"/>
		<path style="fill:#90BAE1;" d="M42.667,187.733c-4.719,0-8.533-3.823-8.533-8.533v-8.533c0-4.71,3.814-8.533,8.533-8.533
			s8.533,3.823,8.533,8.533v8.533C51.2,183.91,47.386,187.733,42.667,187.733"/>
		<path style="fill:#90BAE1;" d="M42.667,230.4c-4.719,0-8.533-3.823-8.533-8.533v-8.533c0-4.71,3.814-8.533,8.533-8.533
			s8.533,3.823,8.533,8.533v8.533C51.2,226.577,47.386,230.4,42.667,230.4"/>
		<path style="fill:#90BAE1;" d="M42.667,273.067c-4.719,0-8.533-3.823-8.533-8.533V256c0-4.71,3.814-8.533,8.533-8.533
			S51.2,251.29,51.2,256v8.533C51.2,269.244,47.386,273.067,42.667,273.067"/>
		<path style="fill:#90BAE1;" d="M42.667,315.733c-4.719,0-8.533-3.823-8.533-8.533v-8.533c0-4.71,3.814-8.533,8.533-8.533
			s8.533,3.823,8.533,8.533v8.533C51.2,311.91,47.386,315.733,42.667,315.733"/>
		<path style="fill:#90BAE1;" d="M42.667,358.4c-4.719,0-8.533-3.823-8.533-8.533v-8.533c0-4.71,3.814-8.533,8.533-8.533
			s8.533,3.823,8.533,8.533v8.533C51.2,354.577,47.386,358.4,42.667,358.4"/>
		<path style="fill:#90BAE1;" d="M42.667,401.067c-4.719,0-8.533-3.823-8.533-8.533V384c0-4.71,3.814-8.533,8.533-8.533
			S51.2,379.29,51.2,384v8.533C51.2,397.244,47.386,401.067,42.667,401.067"/>
		<path style="fill:#90BAE1;" d="M42.667,443.733c-4.719,0-8.533-3.823-8.533-8.533v-8.533c0-4.71,3.814-8.533,8.533-8.533
			s8.533,3.823,8.533,8.533v8.533C51.2,439.91,47.386,443.733,42.667,443.733"/>
		<path style="fill:#90BAE1;" d="M469.333,93.867c-4.719,0-8.533-3.823-8.533-8.533V76.8c0-4.71,3.814-8.533,8.533-8.533
			c4.719,0,8.533,3.823,8.533,8.533v8.533C477.867,90.044,474.052,93.867,469.333,93.867"/>
		<path style="fill:#90BAE1;" d="M469.333,136.533c-4.719,0-8.533-3.823-8.533-8.533v-8.533c0-4.71,3.814-8.533,8.533-8.533
			c4.719,0,8.533,3.823,8.533,8.533V128C477.867,132.71,474.052,136.533,469.333,136.533"/>
		<path style="fill:#90BAE1;" d="M469.333,179.2c-4.719,0-8.533-3.823-8.533-8.533v-8.533c0-4.71,3.814-8.533,8.533-8.533
			c4.719,0,8.533,3.823,8.533,8.533v8.533C477.867,175.377,474.052,179.2,469.333,179.2"/>
		<path style="fill:#90BAE1;" d="M469.333,221.867c-4.719,0-8.533-3.823-8.533-8.533V204.8c0-4.71,3.814-8.533,8.533-8.533
			c4.719,0,8.533,3.823,8.533,8.533v8.533C477.867,218.044,474.052,221.867,469.333,221.867"/>
		<path style="fill:#90BAE1;" d="M469.333,264.533c-4.719,0-8.533-3.823-8.533-8.533v-8.533c0-4.71,3.814-8.533,8.533-8.533
			c4.719,0,8.533,3.823,8.533,8.533V256C477.867,260.71,474.052,264.533,469.333,264.533"/>
		<path style="fill:#90BAE1;" d="M469.333,307.2c-4.719,0-8.533-3.823-8.533-8.533v-8.533c0-4.71,3.814-8.533,8.533-8.533
			c4.719,0,8.533,3.823,8.533,8.533v8.533C477.867,303.377,474.052,307.2,469.333,307.2"/>
		<path style="fill:#90BAE1;" d="M469.333,349.867c-4.719,0-8.533-3.823-8.533-8.533V332.8c0-4.71,3.814-8.533,8.533-8.533
			c4.719,0,8.533,3.823,8.533,8.533v8.533C477.867,346.044,474.052,349.867,469.333,349.867"/>
		<path style="fill:#90BAE1;" d="M469.333,401.067c-4.719,0-8.533-3.823-8.533-8.533v-17.067c0-4.71,3.814-8.533,8.533-8.533
			c4.719,0,8.533,3.823,8.533,8.533v17.067C477.867,397.244,474.052,401.067,469.333,401.067"/>
		<path style="fill:#90BAE1;" d="M469.333,443.733c-4.719,0-8.533-3.823-8.533-8.533v-8.533c0-4.71,3.814-8.533,8.533-8.533
			c4.719,0,8.533,3.823,8.533,8.533v8.533C477.867,439.91,474.052,443.733,469.333,443.733"/>
		<path style="fill:#90BAE1;" d="M42.667,512c-4.719,0-8.533-3.823-8.533-8.533v-25.6h-25.6c-4.719,0-8.533-3.823-8.533-8.533
			c0-4.71,3.814-8.533,8.533-8.533h34.133c4.719,0,8.533,3.823,8.533,8.533v34.133C51.2,508.177,47.386,512,42.667,512"/>
	</g>
	<polygon style="fill:#3B97D3;" points="102.4,418.133 375.467,418.133 375.467,128 102.4,128 	"/>
	<g>
		<path style="fill:#2980BA;" d="M349.867,315.733H128c-4.719,0-8.533-3.823-8.533-8.533s3.814-8.533,8.533-8.533h221.867
			c4.719,0,8.533,3.823,8.533,8.533S354.586,315.733,349.867,315.733"/>
		<path style="fill:#2980BA;" d="M324.267,341.333c-2.185,0-4.369-0.836-6.033-2.5c-3.337-3.337-3.337-8.73,0-12.066l19.567-19.567
			l-19.567-19.567c-3.337-3.337-3.337-8.73,0-12.066c3.337-3.337,8.73-3.337,12.066,0l25.6,25.6c3.337,3.337,3.337,8.73,0,12.066
			l-25.6,25.6C328.636,340.497,326.451,341.333,324.267,341.333"/>
		<path style="fill:#2980BA;" d="M153.6,341.333c-2.185,0-4.369-0.836-6.033-2.5l-25.6-25.6c-3.337-3.337-3.337-8.73,0-12.066
			l25.6-25.6c3.337-3.337,8.73-3.337,12.066,0c3.337,3.337,3.337,8.73,0,12.066L140.066,307.2l19.567,19.567
			c3.337,3.337,3.337,8.73,0,12.066C157.969,340.497,155.785,341.333,153.6,341.333"/>
		<path style="fill:#2980BA;" d="M281.6,401.067c-4.719,0-8.533-3.823-8.533-8.533V153.6c0-4.71,3.814-8.533,8.533-8.533
			c4.719,0,8.533,3.823,8.533,8.533v238.933C290.133,397.244,286.319,401.067,281.6,401.067"/>
		<path style="fill:#2980BA;" d="M281.6,401.067c-2.185,0-4.369-0.836-6.033-2.5l-25.6-25.6c-3.337-3.337-3.337-8.73,0-12.066
			c3.337-3.337,8.73-3.337,12.066,0l19.567,19.567l19.567-19.567c3.337-3.337,8.73-3.337,12.066,0c3.337,3.337,3.337,8.73,0,12.066
			l-25.6,25.6C285.969,400.23,283.785,401.067,281.6,401.067"/>
		<path style="fill:#2980BA;" d="M307.2,187.733c-2.185,0-4.369-0.836-6.033-2.5L281.6,165.666l-19.567,19.567
			c-3.337,3.337-8.73,3.337-12.066,0c-3.337-3.337-3.337-8.73,0-12.066l25.6-25.6c3.337-3.337,8.73-3.337,12.066,0l25.6,25.6
			c3.337,3.337,3.337,8.73,0,12.066C311.569,186.897,309.385,187.733,307.2,187.733"/>
	</g>
</g>
<g>
</g>
<g>
</g>
<g>
</g>
<g>
</g>
<g>
</g>
<g>
</g>
<g>
</g>
<g>
</g>
<g>
</g>
<g>
</g>
<g>
</g>
<g>
</g>
<g>
</g>
<g>
</g>
<g>
</g>
</svg>
