<?xml version="1.0" encoding="iso-8859-1"?>
<!-- Generator: Adobe Illustrator 19.0.0, SVG Export Plug-In . SVG Version: 6.00 Build 0)  -->
<svg version="1.1" id="Layer_1" xmlns="http://www.w3.org/2000/svg" xmlns:xlink="http://www.w3.org/1999/xlink" x="0px" y="0px"
	 viewBox="0 0 512 512" style="enable-background:new 0 0 512 512;" xml:space="preserve">
<g>
	<g>
		<path style="fill:#C8D2DA;" d="M256,51.2c-4.719,0-8.533-3.823-8.533-8.533V8.533C247.467,3.823,251.281,0,256,0
			c4.719,0,8.533,3.823,8.533,8.533v34.133C264.533,47.377,260.719,51.2,256,51.2"/>
		<path style="fill:#C8D2DA;" d="M256,494.933c-4.719,0-8.533-3.823-8.533-8.533V384c0-4.71,3.814-8.533,8.533-8.533
			c4.719,0,8.533,3.823,8.533,8.533v102.4C264.533,491.11,260.719,494.933,256,494.933"/>
		<path style="fill:#C8D2DA;" d="M375.467,512c-2.185,0-4.369-0.836-6.033-2.5L249.967,390.033c-3.337-3.337-3.337-8.73,0-12.066
			c3.337-3.337,8.73-3.337,12.066,0L381.5,497.434c3.337,3.337,3.337,8.73,0,12.066C379.836,511.164,377.651,512,375.467,512"/>
		<path style="fill:#C8D2DA;" d="M136.533,512c-2.185,0-4.369-0.836-6.033-2.5c-3.337-3.337-3.337-8.73,0-12.066l119.467-119.467
			c3.337-3.337,8.73-3.337,12.066,0c3.337,3.337,3.337,8.73,0,12.066L142.566,509.5C140.902,511.164,138.718,512,136.533,512"/>
	</g>
	<polygon style="fill:#EEECDE;" points="8.533,384 503.467,384 503.467,42.667 8.533,42.667 	"/>
	<g>
		<path style="fill:#D2C1A3;" d="M68.267,170.667c-4.719,0-8.533-3.823-8.533-8.533V102.4c0-4.71,3.814-8.533,8.533-8.533
			S76.8,97.69,76.8,102.4v59.733C76.8,166.844,72.986,170.667,68.267,170.667"/>
		<path style="fill:#D2C1A3;" d="M119.467,170.667c-4.719,0-8.533-3.823-8.533-8.533V102.4c0-4.71,3.814-8.533,8.533-8.533
			c4.719,0,8.533,3.823,8.533,8.533v59.733C128,166.844,124.186,170.667,119.467,170.667"/>
		<path style="fill:#D2C1A3;" d="M145.067,136.533c-2.185,0-4.369-0.836-6.033-2.5L93.867,88.866L48.7,134.033
			c-3.337,3.337-8.73,3.337-12.066,0s-3.337-8.73,0-12.066l51.2-51.2c3.337-3.337,8.73-3.337,12.066,0l51.2,51.2
			c3.337,3.337,3.337,8.73,0,12.066C149.436,135.697,147.251,136.533,145.067,136.533"/>
	</g>
	<path style="fill:#1A8244;" d="M103.433,289.104c-2.227,0-4.446-0.87-6.118-2.586c-3.294-3.379-3.209-8.789,0.171-12.066
		l71.782-69.734c3.379-3.285,8.798-3.209,12.066,0.171c3.294,3.379,3.209,8.789-0.171,12.066l-71.782,69.734
		C107.726,288.302,105.575,289.104,103.433,289.104"/>
	<path style="fill:#24AE5F;" d="M110.933,298.667c0-14.14-11.46-25.6-25.6-25.6s-25.6,11.46-25.6,25.6s11.46,25.6,25.6,25.6
		S110.933,312.806,110.933,298.667"/>
	<g>
		<path style="fill:#1A8244;" d="M299.825,256.883c-1.28,0-2.594-0.29-3.814-0.905l-80.725-40.533
			c-4.215-2.116-5.922-7.245-3.806-11.452c2.125-4.207,7.253-5.914,11.452-3.797l80.725,40.525c4.215,2.116,5.922,7.245,3.806,11.46
			C305.96,255.159,302.948,256.883,299.825,256.883"/>
		<path style="fill:#1A8244;" d="M342.292,246.371c-2.167,0-4.326-0.819-5.99-2.458c-3.362-3.311-3.396-8.713-0.085-12.066
			l65.749-66.688c3.311-3.354,8.713-3.388,12.066-0.077c3.362,3.302,3.396,8.704,0.085,12.066l-65.749,66.679
			C346.703,245.518,344.493,246.371,342.292,246.371"/>
	</g>
	<g>
		<path style="fill:#D2C1A3;" d="M469.333,324.267H435.2c-4.719,0-8.533-3.823-8.533-8.533c0-4.71,3.814-8.533,8.533-8.533h34.133
			c4.719,0,8.533,3.823,8.533,8.533C477.867,320.444,474.052,324.267,469.333,324.267"/>
		<path style="fill:#D2C1A3;" d="M469.333,358.4h-68.267c-4.719,0-8.533-3.823-8.533-8.533c0-4.71,3.814-8.533,8.533-8.533h68.267
			c4.719,0,8.533,3.823,8.533,8.533C477.867,354.577,474.052,358.4,469.333,358.4"/>
	</g>
	<g>
		<path style="fill:#24AE5F;" d="M221.867,196.267c0-14.14-11.46-25.6-25.6-25.6s-25.6,11.46-25.6,25.6s11.46,25.6,25.6,25.6
			S221.867,210.406,221.867,196.267"/>
		<path style="fill:#24AE5F;" d="M349.867,256c0-14.14-11.46-25.6-25.6-25.6c-14.14,0-25.6,11.46-25.6,25.6
			c0,14.14,11.46,25.6,25.6,25.6C338.406,281.6,349.867,270.14,349.867,256"/>
		<path style="fill:#24AE5F;" d="M452.267,153.6c0-14.14-11.46-25.6-25.6-25.6s-25.6,11.46-25.6,25.6c0,14.14,11.46,25.6,25.6,25.6
			S452.267,167.74,452.267,153.6"/>
	</g>
</g>
<g>
</g>
<g>
</g>
<g>
</g>
<g>
</g>
<g>
</g>
<g>
</g>
<g>
</g>
<g>
</g>
<g>
</g>
<g>
</g>
<g>
</g>
<g>
</g>
<g>
</g>
<g>
</g>
<g>
</g>
</svg>
